<svg xmlns="http://www.w3.org/2000/svg" fill="none" viewBox="0 0 118 77" aria-hidden="true" data-testid="ipl-illustration-spot"><defs><filter id="spot-documents-1_svg__a" x="0%" y="0%"><feTurbulence baseFrequency="2.5" numOctaves="4" result="noise" seed="14"></feTurbulence><feComponentTransfer in="noise" result="opacity"><feFuncA slope="0.6" type="linear"></feFuncA></feComponentTransfer><feBlend in="opacity" in2="SourceGraphic" mode="overlay" result="blend"></feBlend></filter><filter id="spot-documents-1_svg__c" width="77.5" height="28.118" x="22.48" y="32.879" color-interpolation-filters="sRGB" filterUnits="userSpaceOnUse"><feFlood flood-opacity="0" result="BackgroundImageFix"></feFlood><feColorMatrix in="SourceAlpha" result="hardAlpha" values="0 0 0 0 0 0 0 0 0 0 0 0 0 0 0 0 0 0 127 0"></feColorMatrix><feOffset dx="1" dy="1"></feOffset><feGaussianBlur stdDeviation="0.5"></feGaussianBlur><feColorMatrix values="0 0 0 0 0 0 0 0 0 0 0 0 0 0 0 0 0 0 0.3 0"></feColorMatrix><feBlend in2="BackgroundImageFix" result="effect1_dropShadow_4373_1629"></feBlend><feBlend in="SourceGraphic" in2="effect1_dropShadow_4373_1629" result="shape"></feBlend></filter><filter id="spot-documents-1_svg__e" width="19.67" height="5.624" x="50.903" y="45.941" color-interpolation-filters="sRGB" filterUnits="userSpaceOnUse"><feFlood flood-opacity="0" result="BackgroundImageFix"></feFlood><feColorMatrix in="SourceAlpha" result="hardAlpha" values="0 0 0 0 0 0 0 0 0 0 0 0 0 0 0 0 0 0 127 0"></feColorMatrix><feOffset dx="0.5" dy="0.5"></feOffset><feGaussianBlur stdDeviation="0.25"></feGaussianBlur><feColorMatrix values="0 0 0 0 0 0 0 0 0 0 0 0 0 0 0 0 0 0 0.3 0"></feColorMatrix><feBlend in2="BackgroundImageFix" result="effect1_dropShadow_4373_1629"></feBlend><feBlend in="SourceGraphic" in2="effect1_dropShadow_4373_1629" result="shape"></feBlend><feColorMatrix in="SourceAlpha" result="hardAlpha" values="0 0 0 0 0 0 0 0 0 0 0 0 0 0 0 0 0 0 127 0"></feColorMatrix><feOffset dx="1" dy="1"></feOffset><feGaussianBlur stdDeviation="0.5"></feGaussianBlur><feComposite in2="hardAlpha" k2="-1" k3="1" operator="arithmetic"></feComposite><feColorMatrix values="0 0 0 0 0 0 0 0 0 0 0 0 0 0 0 0 0 0 0.3 0"></feColorMatrix><feBlend in2="shape" result="effect2_innerShadow_4373_1629"></feBlend></filter><linearGradient id="spot-documents-1_svg__d" x1="24.796" x2="100.673" y1="29.323" y2="92.601" gradientUnits="userSpaceOnUse"><stop stop-color="#E2E0FD"></stop><stop offset="1" stop-color="#9288EE"></stop></linearGradient><clipPath id="spot-documents-1_svg__b"><path xmlns="http://www.w3.org/2000/svg" fill="#fff" d="M13.535 32.016L28.788 26.4V15.706H57.84L98.187.854l19.588 75.49h-26.12v.064H28.753v-.065H.225l13.31-44.327z"></path></clipPath><pattern id="spot-documents-1_svg__f" width="50" height="40" x="0" y="0" patternTransform="scale(.3)" patternUnits="userSpaceOnUse"><path d="M0 0h50v40H0z" filter="url(#spot-documents-1_svg__a)"></path></pattern></defs><g clip-path="url(#spot-documents-1_svg__b)"><path fill="#F7C8B8" d="M13.535 32.016L98.187.855l19.588 75.489H.225l13.31-44.328z"></path><path fill="#2C2071" d="M91.652 15.707H28.788v20.847h62.864V15.707z"></path><path fill="#5644BF" d="M91.656 58.983H28.752v17.425h62.904V58.983z"></path><path fill="#fff" d="M67.256 70.014H53.204a2.316 2.316 0 01-2.315-2.312 2.316 2.316 0 012.315-2.312h14.052c1.27 0 2.303 1.03 2.303 2.312a2.313 2.313 0 01-2.303 2.312zM67.256 26.695H53.204a2.316 2.316 0 01-2.315-2.312 2.316 2.316 0 012.315-2.312h14.052c1.27 0 2.303 1.03 2.303 2.312a2.305 2.305 0 01-2.303 2.312z"></path><g filter="url(#spot-documents-1_svg__c)"><path fill="url(#spot-documents-1_svg__d)" d="M72.973 32.879v.158a3.154 3.154 0 01-3.15 3.144H50.624a3.154 3.154 0 01-3.149-3.144v-.158H22.48v26.117h75.5V32.88H72.974z"></path></g><g filter="url(#spot-documents-1_svg__e)"><path fill="#5644BF" d="M67.271 50.565H53.219a2.316 2.316 0 01-2.316-2.312 2.316 2.316 0 012.316-2.312H67.27c1.27 0 2.302 1.03 2.302 2.312a2.313 2.313 0 01-2.302 2.312z"></path></g></g><rect clip-path="url(#spot-documents-1_svg__b)" width="100%" height="100%" fill="url(#spot-documents-1_svg__f)" style="mix-blend-mode: overlay;"></rect></svg>