<svg xmlns="http://www.w3.org/2000/svg" fill="none" viewBox="0 0 747 266" aria-hidden="true" data-testid="ipl-illustration-hero">
    <defs>
        <linearGradient id="hero-job-seeker-benefits_svg__c" x1="294.118" x2="294.651" y1="101.819" y2="61.939" gradientUnits="userSpaceOnUse">
            <stop stop-color="#2557A7"></stop>
            <stop offset="1" stop-color="#6792F0"></stop>
        </linearGradient>
        <linearGradient id="hero-job-seeker-benefits_svg__d" x1="334.204" x2="314.884" y1="91.755" y2="56.86" gradientUnits="userSpaceOnUse">
            <stop stop-color="#2557A7"></stop>
            <stop offset="1" stop-color="#6792F0"></stop>
        </linearGradient>
        <linearGradient id="hero-job-seeker-benefits_svg__f" x1="308.905" x2="295.208" y1="-9.207" y2="67.275" gradientUnits="userSpaceOnUse">
            <stop stop-color="#E0A961"></stop>
            <stop offset="1" stop-color="#996E2C"></stop>
        </linearGradient>
        <linearGradient id="hero-job-seeker-benefits_svg__g" x1="117.432" x2="152.483" y1="202.711" y2="202.711" gradientUnits="userSpaceOnUse">
            <stop stop-color="#164081"></stop>
            <stop offset="1" stop-color="#0D2D5E"></stop>
        </linearGradient>
        <linearGradient id="hero-job-seeker-benefits_svg__h" x1="153.542" x2="308.297" y1="171.116" y2="238.593" gradientUnits="userSpaceOnUse">
            <stop stop-color="#2557A7"></stop>
            <stop offset="1" stop-color="#6792F0"></stop>
        </linearGradient>
        <linearGradient id="hero-job-seeker-benefits_svg__i" x1="225.885" x2="225.885" y1="265.542" y2="140.803" gradientUnits="userSpaceOnUse">
            <stop stop-color="#EE99BF"></stop>
            <stop offset="1" stop-color="#F3C7D9"></stop>
        </linearGradient>
        <linearGradient id="hero-job-seeker-benefits_svg__j" x1="100.688" x2="139.012" y1="191.181" y2="173.653" gradientUnits="userSpaceOnUse">
            <stop stop-color="#164081"></stop>
            <stop offset="1" stop-color="#0D2D5E"></stop>
        </linearGradient>
        <linearGradient id="hero-job-seeker-benefits_svg__l" x1="115.855" x2="273.044" y1="100.773" y2="155.056" gradientUnits="userSpaceOnUse">
            <stop stop-color="#2557A7"></stop>
            <stop offset="1" stop-color="#6792F0"></stop>
        </linearGradient>
        <linearGradient id="hero-job-seeker-benefits_svg__m" x1="176.078" x2="208.929" y1="126.913" y2="126.913" gradientUnits="userSpaceOnUse">
            <stop stop-color="#EE99BF"></stop>
            <stop offset="1" stop-color="#F3C7D9"></stop>
        </linearGradient>
        <linearGradient id="hero-job-seeker-benefits_svg__o" x1="76.784" x2="242.171" y1="96.594" y2="96.594" gradientUnits="userSpaceOnUse">
            <stop offset="0.443" stop-color="#EE99BF"></stop>
            <stop offset="1" stop-color="#F3C7D9"></stop>
        </linearGradient>
        <linearGradient id="hero-job-seeker-benefits_svg__r" x1="532.141" x2="384.198" y1="67.374" y2="243.583" gradientUnits="userSpaceOnUse">
            <stop offset="0.187" stop-color="#237EA3"></stop>
            <stop offset="0.835" stop-color="#123141"></stop>
        </linearGradient>
        <linearGradient id="hero-job-seeker-benefits_svg__s" x1="357.073" x2="505.016" y1="67.714" y2="243.924" gradientUnits="userSpaceOnUse">
            <stop offset="0.187" stop-color="#237EA3"></stop>
            <stop offset="0.835" stop-color="#1D465C"></stop>
        </linearGradient>
        <linearGradient id="hero-job-seeker-benefits_svg__t" x1="369.957" x2="388.977" y1="95.995" y2="95.995" gradientUnits="userSpaceOnUse">
            <stop stop-color="#E0A961"></stop>
            <stop offset="1" stop-color="#996E2C"></stop>
        </linearGradient>
        <linearGradient id="hero-job-seeker-benefits_svg__u" x1="491.752" x2="510.771" y1="95.995" y2="95.995" gradientUnits="userSpaceOnUse">
            <stop stop-color="#E0A961"></stop>
            <stop offset="1" stop-color="#996E2C"></stop>
        </linearGradient>
        <linearGradient id="hero-job-seeker-benefits_svg__v" x1="341.831" x2="299.026" y1="142.692" y2="252.585" gradientUnits="userSpaceOnUse">
            <stop stop-color="#E867A8"></stop>
            <stop offset="1" stop-color="#9D2B6B"></stop>
        </linearGradient>
        <linearGradient id="hero-job-seeker-benefits_svg__w" x1="651.824" x2="647.762" y1="235.195" y2="119.04" gradientUnits="userSpaceOnUse">
            <stop stop-color="#9D2B6B"></stop>
            <stop offset="1" stop-color="#E867A8"></stop>
        </linearGradient>
        <linearGradient id="hero-job-seeker-benefits_svg__x" x1="560.498" x2="586.301" y1="143.375" y2="173.798" gradientUnits="userSpaceOnUse">
            <stop stop-color="#E0A961"></stop>
            <stop offset="1" stop-color="#996E2C"></stop>
        </linearGradient>
        <linearGradient id="hero-job-seeker-benefits_svg__y" x1="578.01" x2="617.534" y1="185.642" y2="191.035" gradientUnits="userSpaceOnUse">
            <stop stop-color="#E0A961"></stop>
            <stop offset="1" stop-color="#996E2C"></stop>
        </linearGradient>
        <linearGradient id="hero-job-seeker-benefits_svg__z" x1="576.746" x2="612.415" y1="132.129" y2="149.99" gradientUnits="userSpaceOnUse">
            <stop stop-color="#E0A961"></stop>
            <stop offset="1" stop-color="#996E2C"></stop>
        </linearGradient>
        <linearGradient id="hero-job-seeker-benefits_svg__A" x1="554.153" x2="599.337" y1="260.479" y2="260.479" gradientUnits="userSpaceOnUse">
            <stop stop-color="#C08A38"></stop>
            <stop offset="1" stop-color="#553D1C"></stop>
        </linearGradient>
        <linearGradient id="hero-job-seeker-benefits_svg__B" x1="552.313" x2="597.497" y1="251.417" y2="251.417" gradientUnits="userSpaceOnUse">
            <stop stop-color="#E0A961"></stop>
            <stop offset="1" stop-color="#735324"></stop>
        </linearGradient>
        <linearGradient id="hero-job-seeker-benefits_svg__C" x1="556.103" x2="601.287" y1="241.13" y2="241.13" gradientUnits="userSpaceOnUse">
            <stop stop-color="#C08A38"></stop>
            <stop offset="1" stop-color="#553D1C"></stop>
        </linearGradient>
        <linearGradient id="hero-job-seeker-benefits_svg__D" x1="554.36" x2="599.544" y1="231.036" y2="231.036" gradientUnits="userSpaceOnUse">
            <stop stop-color="#E0A961"></stop>
            <stop offset="1" stop-color="#735324"></stop>
        </linearGradient>
        <linearGradient id="hero-job-seeker-benefits_svg__E" x1="101.398" x2="85.121" y1="166.056" y2="256.757" gradientUnits="userSpaceOnUse">
            <stop stop-color="#E0A961"></stop>
            <stop offset="1" stop-color="#996E2C"></stop>
        </linearGradient>
        <filter id="hero-job-seeker-benefits_svg__b" x="0%" y="0%">
            <feTurbulence baseFrequency="2.5" numOctaves="4" result="noise" seed="14"></feTurbulence>
            <feComponentTransfer in="noise" result="opacity">
                <feFuncA slope="0.6" type="linear"></feFuncA>
            </feComponentTransfer>
            <feBlend in="opacity" in2="SourceGraphic" mode="overlay" result="blend"></feBlend>
        </filter>
        <filter id="hero-job-seeker-benefits_svg__e" width="67.715" height="66.574" x="266.468" y="10.035" color-interpolation-filters="sRGB" filterUnits="userSpaceOnUse">
            <feFlood flood-opacity="0" result="BackgroundImageFix"></feFlood>
            <feColorMatrix in="SourceAlpha" result="hardAlpha" values="0 0 0 0 0 0 0 0 0 0 0 0 0 0 0 0 0 0 127 0"></feColorMatrix>
            <feOffset dx="1" dy="1"></feOffset>
            <feGaussianBlur stdDeviation="0.5"></feGaussianBlur>
            <feColorMatrix values="0 0 0 0 0 0 0 0 0 0 0 0 0 0 0 0 0 0 0.3 0"></feColorMatrix>
            <feBlend in2="BackgroundImageFix" result="effect1_dropShadow_2028_1384"></feBlend>
            <feBlend in="SourceGraphic" in2="effect1_dropShadow_2028_1384" result="shape"></feBlend>
            <feColorMatrix in="SourceAlpha" result="hardAlpha" values="0 0 0 0 0 0 0 0 0 0 0 0 0 0 0 0 0 0 127 0"></feColorMatrix>
            <feOffset dx="-1.5" dy="1"></feOffset>
            <feGaussianBlur stdDeviation="0.75"></feGaussianBlur>
            <feComposite in2="hardAlpha" k2="-1" k3="1" operator="arithmetic"></feComposite>
            <feColorMatrix values="0 0 0 0 1 0 0 0 0 1 0 0 0 0 1 0 0 0 0.3 0"></feColorMatrix>
            <feBlend in2="shape" mode="soft-light" result="effect2_innerShadow_2028_1384"></feBlend>
        </filter>
        <filter id="hero-job-seeker-benefits_svg__k" width="155.345" height="135.268" x="112.733" y="59.615" color-interpolation-filters="sRGB" filterUnits="userSpaceOnUse">
            <feFlood flood-opacity="0" result="BackgroundImageFix"></feFlood>
            <feColorMatrix in="SourceAlpha" result="hardAlpha" values="0 0 0 0 0 0 0 0 0 0 0 0 0 0 0 0 0 0 127 0"></feColorMatrix>
            <feOffset dx="1" dy="1"></feOffset>
            <feGaussianBlur stdDeviation="1.5"></feGaussianBlur>
            <feColorMatrix values="0 0 0 0 0 0 0 0 0 0 0 0 0 0 0 0 0 0 0.3 0"></feColorMatrix>
            <feBlend in2="BackgroundImageFix" result="effect1_dropShadow_2028_1384"></feBlend>
            <feBlend in="SourceGraphic" in2="effect1_dropShadow_2028_1384" result="shape"></feBlend>
            <feColorMatrix in="SourceAlpha" result="hardAlpha" values="0 0 0 0 0 0 0 0 0 0 0 0 0 0 0 0 0 0 127 0"></feColorMatrix>
            <feOffset dx="-1.5" dy="1"></feOffset>
            <feGaussianBlur stdDeviation="0.75"></feGaussianBlur>
            <feComposite in2="hardAlpha" k2="-1" k3="1" operator="arithmetic"></feComposite>
            <feColorMatrix values="0 0 0 0 1 0 0 0 0 1 0 0 0 0 1 0 0 0 0.3 0"></feColorMatrix>
            <feBlend in2="shape" mode="soft-light" result="effect2_innerShadow_2028_1384"></feBlend>
        </filter>
        <filter id="hero-job-seeker-benefits_svg__n" width="168.905" height="143.311" x="75.313" y="25.93" color-interpolation-filters="sRGB" filterUnits="userSpaceOnUse">
            <feFlood flood-opacity="0" result="BackgroundImageFix"></feFlood>
            <feColorMatrix in="SourceAlpha" result="hardAlpha" values="0 0 0 0 0 0 0 0 0 0 0 0 0 0 0 0 0 0 127 0"></feColorMatrix>
            <feOffset dx="1" dy="1"></feOffset>
            <feGaussianBlur stdDeviation="0.5"></feGaussianBlur>
            <feColorMatrix values="0 0 0 0 0 0 0 0 0 0 0 0 0 0 0 0 0 0 0.3 0"></feColorMatrix>
            <feBlend in2="BackgroundImageFix" result="effect1_dropShadow_2028_1384"></feBlend>
            <feBlend in="SourceGraphic" in2="effect1_dropShadow_2028_1384" result="shape"></feBlend>
            <feColorMatrix in="SourceAlpha" result="hardAlpha" values="0 0 0 0 0 0 0 0 0 0 0 0 0 0 0 0 0 0 127 0"></feColorMatrix>
            <feOffset dx="-1.5" dy="1"></feOffset>
            <feGaussianBlur stdDeviation="0.75"></feGaussianBlur>
            <feComposite in2="hardAlpha" k2="-1" k3="1" operator="arithmetic"></feComposite>
            <feColorMatrix values="0 0 0 0 1 0 0 0 0 1 0 0 0 0 1 0 0 0 0.3 0"></feColorMatrix>
            <feBlend in2="shape" mode="soft-light" result="effect2_innerShadow_2028_1384"></feBlend>
        </filter>
        <filter id="hero-job-seeker-benefits_svg__p" width="41.685" height="90.67" x="123.273" y="121.848" color-interpolation-filters="sRGB" filterUnits="userSpaceOnUse">
            <feFlood flood-opacity="0" result="BackgroundImageFix"></feFlood>
            <feColorMatrix in="SourceAlpha" result="hardAlpha" values="0 0 0 0 0 0 0 0 0 0 0 0 0 0 0 0 0 0 127 0"></feColorMatrix>
            <feOffset dx="1" dy="1"></feOffset>
            <feGaussianBlur stdDeviation="0.5"></feGaussianBlur>
            <feColorMatrix values="0 0 0 0 0 0 0 0 0 0 0 0 0 0 0 0 0 0 0.3 0"></feColorMatrix>
            <feBlend in2="BackgroundImageFix" result="effect1_dropShadow_2028_1384"></feBlend>
            <feBlend in="SourceGraphic" in2="effect1_dropShadow_2028_1384" result="shape"></feBlend>
            <feColorMatrix in="SourceAlpha" result="hardAlpha" values="0 0 0 0 0 0 0 0 0 0 0 0 0 0 0 0 0 0 127 0"></feColorMatrix>
            <feOffset dx="-1.5" dy="1"></feOffset>
            <feGaussianBlur stdDeviation="0.75"></feGaussianBlur>
            <feComposite in2="hardAlpha" k2="-1" k3="1" operator="arithmetic"></feComposite>
            <feColorMatrix values="0 0 0 0 1 0 0 0 0 1 0 0 0 0 1 0 0 0 0.3 0"></feColorMatrix>
            <feBlend in2="shape" mode="soft-light" result="effect2_innerShadow_2028_1384"></feBlend>
        </filter>
        <filter id="hero-job-seeker-benefits_svg__q" width="42.368" height="53.821" x="142.231" y="83.926" color-interpolation-filters="sRGB" filterUnits="userSpaceOnUse">
            <feFlood flood-opacity="0" result="BackgroundImageFix"></feFlood>
            <feColorMatrix in="SourceAlpha" result="hardAlpha" values="0 0 0 0 0 0 0 0 0 0 0 0 0 0 0 0 0 0 127 0"></feColorMatrix>
            <feOffset dx="1" dy="1"></feOffset>
            <feGaussianBlur stdDeviation="0.5"></feGaussianBlur>
            <feColorMatrix values="0 0 0 0 0 0 0 0 0 0 0 0 0 0 0 0 0 0 0.3 0"></feColorMatrix>
            <feBlend in2="BackgroundImageFix" result="effect1_dropShadow_2028_1384"></feBlend>
            <feBlend in="SourceGraphic" in2="effect1_dropShadow_2028_1384" result="shape"></feBlend>
            <feColorMatrix in="SourceAlpha" result="hardAlpha" values="0 0 0 0 0 0 0 0 0 0 0 0 0 0 0 0 0 0 127 0"></feColorMatrix>
            <feOffset dx="-1.5" dy="1"></feOffset>
            <feGaussianBlur stdDeviation="0.75"></feGaussianBlur>
            <feComposite in2="hardAlpha" k2="-1" k3="1" operator="arithmetic"></feComposite>
            <feColorMatrix values="0 0 0 0 1 0 0 0 0 1 0 0 0 0 1 0 0 0 0.3 0"></feColorMatrix>
            <feBlend in2="shape" mode="soft-light" result="effect2_innerShadow_2028_1384"></feBlend>
        </filter>
        <clipPath id="hero-job-seeker-benefits_svg__a">
            <path xmlns="http://www.w3.org/2000/svg" fill="#fff" fill-rule="evenodd" d="M472.708 265.61l-.051.278L0 266c.135-.77.276-1.61.427-2.516 2.966-17.751 10.07-60.276 62.891-76.004 13.837-4.101 29.44-2.27 45.434 1.211l-10.649-14.226 11.08-9.274c-9.115 3.957-13.646.861-13.646.861s-9.364-30.268-13.154-39.092c-3.79-8.824-5.463-20.105-5.463-20.105.78-.67 29.764-5.696 38.794-5.026 8.918.558 28.092 5.138 28.092 5.138l.887.255c1.057-.595 2.751-1.544 3.347-1.842.389-.195 1.031-1.62 1.762-3.239.946-2.098 2.04-4.523 2.92-5.027.804-.46 3.026-.98 5.176-1.482 2.025-.473 3.985-.93 4.634-1.31.806-.471 1.531-3.335 2.175-5.879.425-1.678.815-3.217 1.169-3.838.789-1.384 4.806-.67 5.722-.486.123-.336.188-.616.188-.831v-.196c-.002-4.385-.015-34.726 5.797-45.934 5.685-11.392 10.367-11.727 11.816-11.392.706.163 13.247 6.732 25.933 13.43C239.341 14.989 272.6 0 309.353 0c59.663 0 110.119 39.498 126.742 93.82h54.369l.828-.622c-.018-.427-.018-.854-.018-1.28 0-1.341.223-2.682.558-3.91.223-.67.445-1.23.78-1.9a.558.558 0 00.111-.167c.028-.056.056-.112.112-.168l.111-.111a.584.584 0 00.112-.168c.028-.056.056-.112.111-.167l.223-.224a.582.582 0 00.112-.167c.028-.056.055-.112.111-.168l.112-.223.223-.224a4.439 4.439 0 011.783-1.34c.669-.335 1.561-.558 2.453-.67.892 0 1.783.112 2.675.447.892.335 1.672.782 2.453 1.228l.12.088 51.828-38.947 88.477 101.742c19.709-2.291 40.136 5.35 53.437 22.009 12.163 15.233 15.624 34.63 11.081 52.181L747 265.61h-93.557c-1.815.083-3.63.083-5.441 0H472.708zm26.69-178.503a4.776 4.776 0 01-.543-.217c-.335 0-.669 0-1.004.112-.334.112-.669.223-1.003.559-.218.145-.389.339-.575.55a7.253 7.253 0 01-.317.343c-.223.335-.446.782-.669 1.229-.083.221-.159.45-.228.684l4.339-3.26z" clip-rule="evenodd"></path>
        </clipPath>
    </defs>
    <g clip-path="url(#hero-job-seeker-benefits_svg__a)" filter="url(#hero-job-seeker-benefits_svg__b)">
        <path fill="#F5CB9D" d="M436.174 183.361c-25.318-23.311-67.478-43.833-113.096-42.495-40.487 1.227-74.505 28.776-93.019 41.379-11.823 8.142-28.442 20.411-60.564 18.961-33.683-1.45-74.616-23.087-106.292-13.718C7.66 203.995 2.64 250.058-.148 265.896l472.905-.111c5.577-30.226-11.265-59.114-36.583-82.424z"></path>
        <path fill="#F5CB9D" d="M309.367 265.503c73.241 0 132.615-59.373 132.615-132.614C441.982 59.648 382.608.274 309.367.274c-73.241 0-132.614 59.374-132.614 132.615 0 73.241 59.373 132.614 132.614 132.614z"></path>
        <path fill="#fff" fill-rule="evenodd" d="M256.27 117.053c-.223 0-.335.111-.335.334-1.561 7.696-5.799 12.492-13.83 13.719-.111 0-.223.112-.334.223 0 .112.111.223.334.223 8.142 1.339 12.38 6.135 13.83 13.719 0 .111.112.335.335.335.112 0 .335-.112.335-.335 1.561-7.696 5.799-12.492 13.83-13.719.111 0 .223-.111.334-.223 0-.111-.111-.223-.334-.223-8.142-1.338-12.38-6.134-13.83-13.719 0-.223-.112-.334-.335-.334zM303.9 110.135c-.112 0-.224.112-.224.223-1.115 5.912-4.461 9.592-10.707 10.596-.111 0-.223.112-.223.223a.24.24 0 00.223.223c6.246 1.004 9.592 4.685 10.707 10.596 0 .112.112.223.224.223a.24.24 0 00.223-.223c1.115-5.911 4.461-9.592 10.707-10.596a.24.24 0 00.223-.223c0-.111-.112-.223-.223-.223-6.246-1.004-9.592-4.684-10.707-10.596 0-.111-.112-.223-.223-.223zM277.351 102.44c-.112 0-.112.111-.223.111-.781 4.127-3.123 6.804-7.585 7.473-.111 0-.111 0-.111.112 0 .111.111.111.111.111 4.462.781 6.692 3.346 7.585 7.473 0 .112.111.112.111.112.112 0 .112-.112.112-.112.78-4.127 3.123-6.803 7.584-7.473.111 0 .111 0 .111-.111 0-.112-.111-.112-.111-.112-4.461-.78-6.692-3.346-7.584-7.473.223-.111.111-.111 0-.111z" clip-rule="evenodd"></path>
        <path fill="url(#hero-job-seeker-benefits_svg__c)" d="M304.9 101.999l-10.707-8.923-10.819 8.588.558-39.817 21.526.223-.558 39.929z"></path>
        <path fill="url(#hero-job-seeker-benefits_svg__d)" d="M324.754 96.98l5.131-12.827 13.719 2.343-19.407-34.8-18.738 10.373 19.295 34.91z"></path>
        <g filter="url(#hero-job-seeker-benefits_svg__e)">
            <path fill="url(#hero-job-seeker-benefits_svg__f)" d="M289.284 11.873c16.731-5.91 35.022 2.9 41.045 19.742 5.911 16.842-2.788 35.245-19.407 41.156-16.619 5.912-35.022-2.9-41.045-19.741-6.022-16.842 2.677-35.245 19.407-41.157z"></path>
        </g>
        <path fill="#fff" d="M293.857 22.58c0-.223.223-.223.335-.112l8.7 11.711c0 .112.111.112.223.112l13.941-4.684c.224-.112.335.111.224.334l-8.589 11.934v.223l8.7 11.711c.112.112 0 .335-.223.335l-13.942-4.573c-.111 0-.111 0-.223.112l-8.588 11.934c-.112.111-.335.111-.335-.112l-.111-14.61c0-.112 0-.112-.112-.224l-14.053-4.35c-.223 0-.223-.334 0-.334l13.942-4.685c.111 0 .111-.111.111-.223v-14.5z"></path>
        <path fill="#F5CB9D" d="M555.405 45.337L261.847 265.506h485.397L555.405 45.337z"></path>
        <path fill="url(#hero-job-seeker-benefits_svg__g)" d="M152.429 139.912h-35.022v125.587h35.022V139.912z"></path>
        <path fill="url(#hero-job-seeker-benefits_svg__h)" d="M304.232 139.912v125.587H147.973l4.907-123.803 151.352-1.784z"></path>
        <path fill="url(#hero-job-seeker-benefits_svg__i)" d="M232.743 140.804V265.5h-13.607V140.916l13.607-.112z"></path>
        <path fill="url(#hero-job-seeker-benefits_svg__j)" d="M115.628 159.769l-17.622 14.723 23.087 30.783 17.623-15.838-23.088-29.668z"></path>
        <g filter="url(#hero-job-seeker-benefits_svg__k)">
            <path fill="url(#hero-job-seeker-benefits_svg__l)" d="M264.078 92.51l-22.976-30.895-16.396 12.603-109.973 84.989 24.315 31.676 125.03-98.373z"></path>
        </g>
        <path fill="url(#hero-job-seeker-benefits_svg__m)" d="M187.121 107.346l21.749 30.783-10.707 8.477-22.084-31.341 11.042-7.919z"></path>
        <g filter="url(#hero-job-seeker-benefits_svg__n)">
            <path fill="url(#hero-job-seeker-benefits_svg__o)" d="M143.733 107.089s-19.184-4.573-28.107-5.131c-9.034-.669-38.033 4.35-38.814 5.019 0 0 1.674 11.265 5.466 20.077 3.792 8.811 13.16 39.037 13.16 39.037s7.362 5.019 22.196-5.912c14.834-10.93 33.46-23.98 35.356-25.653 1.897-1.561 27.773-14.164 27.773-15.949-.112-1.338 16.618-9.926 29.779-22.195 4.796-4.573 9.258-9.592 12.046-14.946 10.707-19.965 16.507-29.557 19.63-27.772 0 0-51.417-27.326-52.867-27.66-1.45-.335-6.135 0-11.823 11.376-5.911 11.377-5.8 42.495-5.8 46.064 0 3.68-19.072 26.21-19.072 26.21l-8.923-2.565z"></path>
        </g>
        <path fill="#E867A8" d="M210.316 95.86c4.796-4.572 9.258-9.591 12.046-14.945 8.477-15.838 13.83-25.206 17.288-27.437 1.004-.446 1.785-.558 2.342-.335 3.681 1.896.446 9.815-2.231 15.28-2.453 5.354-29.445 27.438-29.445 27.438zM176.856 113.814c.447-.558.781-1.338 1.004-2.231.335-1.896.446-5.465.558-9.368l1.561-.447s8.7-2.9 13.273 15.169c.781 3.011 1.45 6.134 2.119 9.369 3.569 15.838 7.473 33.46 20.969 47.848l-9.146-2.119-7.585 9.146s-13.83-43.61-16.618-53.76c-1.227-4.35-3.681-9.369-6.135-13.607z"></path>
        <g filter="url(#hero-job-seeker-benefits_svg__p)">
            <path fill="#E867A8" d="M153.995 121.848c1.227 6.358 7.696 1.339 8.7 2.231.669.558 0 5.019-1.338 11.376-2.119 4.685-4.127 10.038-4.908 14.834-1.896 11.265-11.934 60.229-11.934 60.229l-9.703-9.704-10.039 2.9c13.385-16.618 15.504-36.248 17.511-53.982.446-3.569.781-7.138 1.227-10.484 2.008-13.496 7.25-16.731 10.484-17.4z"></path>
        </g>
        <g filter="url(#hero-job-seeker-benefits_svg__q)">
            <path fill="#EE99BF" d="M171.727 84.312s-5.019-1.115-5.912.446c-.892 1.562-2.007 8.923-3.346 9.704-1.338.78-8.253 1.896-9.815 2.788-1.561.892-3.792 7.808-4.684 8.254-.893.446-4.239 2.342-4.239 2.342s6.693 25.653 9.258 27.549c2.565 1.896 12.603-4.238 18.626-9.369 5.911-5.131 11.6-6.246 10.93-11.153-.669-4.908-4.573-19.296-7.695-24.984l-3.123-5.577z"></path>
        </g>
        <path fill="url(#hero-job-seeker-benefits_svg__r)" d="M547.996 93.96H341.992c-2.676 0-5.242 2.232-5.688 4.908L309.982 260.26c-.446 2.676 1.45 4.907 4.127 4.907h205.892c2.677 0 5.242-2.231 5.689-4.907l26.322-161.39c.557-2.677-1.227-4.908-4.016-4.908z"></path>
        <path fill="url(#hero-job-seeker-benefits_svg__s)" d="M341.152 94.301h206.115c2.677 0 5.243 2.23 5.689 4.908l26.322 161.39c.446 2.677-1.45 4.908-4.127 4.908H369.147c-2.677 0-5.242-2.231-5.688-4.908l-26.434-161.39c-.446-2.677 1.45-4.908 4.127-4.908z"></path>
        <path fill="#fff" d="M347.838 104.002h197.527l24.872 151.91H372.599l-24.761-151.91z"></path>
        <path fill="#F3F2F1" d="M400.819 120.958h-32.345l5.242 32.345h32.345l-5.242-32.345zM444.095 120.958H411.75l5.242 32.345h32.345l-5.242-32.345z"></path>
        <path fill="#EE99BF" d="M487.368 120.958h-32.345l5.243 32.345h32.344l-5.242-32.345z"></path>
        <path fill="#F3F2F1" d="M530.647 120.958h-32.345l5.242 32.345h32.345l-5.242-32.345z"></path>
        <path fill="#F5CB9D" d="M407.851 163.894h-32.345l5.242 32.345h32.345l-5.242-32.345z"></path>
        <path fill="#F3F2F1" d="M451.123 163.894h-32.345l5.242 32.345h32.345l-5.242-32.345zM494.4 163.894h-32.345l5.242 32.345h32.345l-5.242-32.345zM537.672 163.894h-32.345l5.242 32.345h32.345l-5.242-32.345zM414.876 206.843h-32.345l5.242 32.345h32.345l-5.242-32.345z"></path>
        <path fill="#C7D2F6" d="M458.15 206.833h-32.345l5.242 32.345h32.345l-5.242-32.345z"></path>
        <path fill="#F3F2F1" d="M501.428 206.833h-32.345l5.242 32.345h32.345l-5.242-32.345zM544.7 206.833h-32.345l5.243 32.345h32.345l-5.243-32.345z"></path>
        <path fill="url(#hero-job-seeker-benefits_svg__t)" d="M388.887 100.314c-.111 1.45-.334 2.788-.892 4.127-.223.669-.558 1.338-1.004 1.896a6.813 6.813 0 01-1.45 1.673 8.765 8.765 0 01-2.007 1.227c-.781.334-1.673.446-2.566.446a5.05 5.05 0 01-1.784-.335v-4.35c.334.112.669.112 1.004.112.334 0 .557-.112.892-.335.223-.223.558-.446.781-.669.446-.558.78-1.338 1.003-2.231.223-.892.335-1.896.335-2.788 0-1.004-.112-2.008-.223-3.011-.223-1.004-.446-2.12-.781-3.012-.334-1.004-.781-2.008-1.338-2.788-.558-.893-1.116-1.673-1.785-2.231-.334-.223-.669-.558-1.004-.67-.334-.11-.669-.222-.892-.334-.334 0-.669 0-1.004.112-.334.111-.669.223-1.003.557-.335.224-.558.558-.893.893-.223.334-.446.78-.669 1.227-.335.892-.558 1.896-.669 3.011v1.561h-3.235c-.111-.78-.111-1.561-.111-2.342 0-1.338.223-2.677.557-3.904.224-.669.447-1.226.781-1.896.112-.111.112-.223.223-.334l.112-.112c.111-.111.111-.223.223-.334l.111-.112.112-.111c.111-.112.111-.223.223-.335l.112-.223.223-.223c.446-.558 1.003-1.004 1.784-1.338.669-.335 1.562-.558 2.454-.67.892 0 1.784.112 2.677.446.892.335 1.673.781 2.453 1.227.781.558 1.339 1.116 2.008 1.673.558.67 1.115 1.227 1.562 1.896.892 1.339 1.673 2.677 2.23 4.127.558 1.45.893 2.9 1.227 4.239.335 1.338.335 2.788.223 4.238z"></path>
        <path fill="url(#hero-job-seeker-benefits_svg__u)" d="M510.679 100.314c-.111 1.45-.334 2.788-.892 4.127-.223.669-.558 1.338-1.004 1.896a6.813 6.813 0 01-1.45 1.673 8.765 8.765 0 01-2.007 1.227c-.781.334-1.673.446-2.566.446a5.05 5.05 0 01-1.784-.335v-4.35c.334.112.669.112 1.004.112.334 0 .557-.112.892-.335.223-.223.558-.446.781-.669.446-.558.78-1.338 1.003-2.231.223-.892.335-1.896.335-2.788 0-1.004-.112-2.008-.223-3.011-.223-1.004-.446-2.12-.781-3.012-.334-1.004-.781-2.008-1.338-2.788-.558-.893-1.116-1.673-1.785-2.231-.334-.223-.669-.558-1.004-.67-.334-.11-.669-.222-.892-.334-.334 0-.669 0-1.004.112-.334.111-.669.223-1.003.557-.335.224-.558.558-.893.893-.223.334-.446.78-.669 1.227-.335.892-.558 1.896-.669 3.011v1.561h-3.235c-.111-.78-.111-1.561-.111-2.342 0-1.338.223-2.677.557-3.904.224-.669.447-1.226.781-1.896.112-.111.112-.223.223-.334l.112-.112c.111-.111.111-.223.223-.334l.111-.112.112-.111c.111-.112.111-.223.223-.335l.112-.223.223-.223c.446-.558 1.003-1.004 1.784-1.338.669-.335 1.562-.558 2.454-.67.892 0 1.784.112 2.677.446.892.335 1.673.781 2.453 1.227.781.558 1.339 1.116 2.008 1.673.558.67 1.115 1.227 1.562 1.896.892 1.339 1.673 2.677 2.23 4.127.558 1.45.893 2.9 1.227 4.239.335 1.338.335 2.788.223 4.238z"></path>
        <path fill="url(#hero-job-seeker-benefits_svg__v)" d="M313.156 265.501c27.042 0 48.964-21.922 48.964-48.964 0-27.042-21.922-48.963-48.964-48.963-27.042 0-48.964 21.921-48.964 48.963s21.922 48.964 48.964 48.964z"></path>
        <path fill="#fff" d="M298.665 217.456l-10.819 1.56 2.769 19.209 10.819-1.56-2.769-19.209zM314.784 204.898l-10.819 1.56 4.218 29.255 10.818-1.56-4.217-29.255zM331.084 193.225l-10.819 1.56 5.538 38.418 10.819-1.56-5.538-38.418z"></path>
        <path fill="url(#hero-job-seeker-benefits_svg__w)" d="M604.375 243.194c-20.522-25.653-16.284-63.129 9.369-83.651s63.128-16.284 83.651 9.369c20.522 25.653 16.284 63.128-9.369 83.651-25.765 20.522-63.129 16.284-83.651-9.369z"></path>
        <path fill="#fff" d="M646.422 233.274c-1.562.78-3.458.334-4.462-1.116l-1.561-2.23c-11.934-16.619-19.742-27.549-17.176-38.145 2.119-8.588 10.818-13.607 19.741-11.377 5.019 1.227 9.035 6.135 11.377 10.485 4.015-2.789 9.815-5.354 14.945-4.127 8.923 2.231 14.388 10.596 12.381 19.184-2.566 10.484-14.5 16.618-32.791 25.987 0 .112-1.227.67-2.454 1.339z"></path>
        <path fill="url(#hero-job-seeker-benefits_svg__x)" d="M570.912 166.795c11.823 2.23 22.196-.112 23.2-5.243.892-5.13-7.919-11.041-19.742-13.161-11.823-2.23-22.195.112-23.199 5.243-1.004 5.13 7.919 11.041 19.741 13.161z"></path>
        <path fill="#735324" d="M594.111 161.669c-1.115 5.019-11.376 7.361-23.199 5.131-11.711-2.119-20.41-7.919-19.741-12.938l-1.227 6.469c-.335 5.019 8.365 10.596 19.853 12.715 11.488 2.119 21.638 0 23.088-4.796l1.226-6.581z"></path>
        <path fill="#735324" d="M594.111 161.669c-1.115 5.019-11.376 7.361-23.199 5.131-11.711-2.119-20.41-7.919-19.741-12.938l-1.227 6.469c-.335 5.019 8.365 10.596 19.853 12.715 11.488 2.119 21.638 0 23.088-4.796l1.226-6.581z"></path>
        <path fill="#E0A961" d="M571.584 163.671c8.7 1.562 16.173 0 16.842-3.458.669-3.569-5.8-7.695-14.5-9.368-8.699-1.562-16.172 0-16.841 3.457-.67 3.458 5.799 7.808 14.499 9.369z"></path>
        <path fill="url(#hero-job-seeker-benefits_svg__y)" d="M601.474 196.245c10.261-6.246 16.395-14.946 13.718-19.407-2.676-4.462-13.272-2.9-23.533 3.346-10.262 6.246-16.396 14.945-13.719 19.407 2.677 4.461 13.273 2.9 23.534-3.346z"></path>
        <path fill="#735324" d="M615.306 176.95c2.565 4.461-3.569 13.049-13.83 19.295-10.15 6.246-20.522 7.808-23.422 3.569l3.457 5.577c3.012 3.904 13.273 2.342 23.311-3.792 10.038-6.135 16.061-14.5 13.942-18.961l-3.458-5.688z"></path>
        <path fill="#735324" d="M615.306 176.95c2.565 4.461-3.569 13.049-13.83 19.295-10.15 6.246-20.522 7.808-23.422 3.569l3.457 5.577c3.012 3.904 13.273 2.342 23.311-3.792 10.038-6.135 16.061-14.5 13.942-18.961l-3.458-5.688z"></path>
        <path fill="#E0A961" d="M599.801 193.452c7.473-4.573 12.046-10.819 10.261-13.83-1.896-3.123-9.48-1.896-17.064 2.788-7.473 4.573-12.046 10.819-10.262 13.942 1.785 3.123 9.592 1.673 17.065-2.9z"></path>
        <path fill="#735324" d="M614.852 135.899c1.004 5.019-7.584 11.154-19.295 13.831-11.6 2.565-21.972.669-23.311-4.239l1.45 6.358c1.673 4.684 11.823 6.469 23.199 3.904 11.377-2.566 19.853-8.477 19.296-13.496l-1.339-6.358z"></path>
        <path fill="url(#hero-job-seeker-benefits_svg__z)" d="M595.561 149.73c11.823-2.677 20.411-8.811 19.296-13.942-1.115-5.019-11.6-7.026-23.311-4.349-11.822 2.676-20.411 8.811-19.295 13.941 1.115 5.019 11.488 7.027 23.31 4.35z"></path>
        <path fill="#735324" d="M614.852 135.899c1.004 5.019-7.584 11.154-19.295 13.831-11.6 2.565-21.972.669-23.311-4.239l1.45 6.358c1.673 4.684 11.823 6.469 23.199 3.904 11.377-2.566 19.853-8.477 19.296-13.496l-1.339-6.358z"></path>
        <path fill="#E0A961" d="M594.89 146.609c8.588-1.896 14.946-6.358 14.165-9.815-.781-3.569-8.365-4.796-16.953-2.9-8.588 1.896-14.946 6.357-14.165 9.815.781 3.458 8.365 4.796 16.953 2.9z"></path>
        <path fill="url(#hero-job-seeker-benefits_svg__A)" d="M597.784 255.319h-41.936c-.893 0-1.562.67-1.562 1.562v7.138c0 .892.669 1.561 1.562 1.561h41.936c.893 0 1.562-.669 1.562-1.561v-7.138c0-.781-.669-1.562-1.562-1.562z"></path>
        <path fill="url(#hero-job-seeker-benefits_svg__B)" d="M595.888 246.284h-41.937c-.892 0-1.561.669-1.561 1.561v7.138c0 .893.669 1.562 1.561 1.562h41.937c.892 0 1.562-.669 1.562-1.562v-7.138c0-.892-.67-1.561-1.562-1.561z"></path>
        <path fill="url(#hero-job-seeker-benefits_svg__C)" d="M599.677 236.023H557.74c-.892 0-1.561.669-1.561 1.561v7.139c0 .892.669 1.561 1.561 1.561h41.937c.892 0 1.562-.669 1.562-1.561v-7.139c0-.892-.67-1.561-1.562-1.561z"></path>
        <path fill="url(#hero-job-seeker-benefits_svg__D)" d="M597.895 225.873h-41.937c-.892 0-1.562.669-1.562 1.561v7.138c0 .892.67 1.562 1.562 1.562h41.937c.892 0 1.561-.67 1.561-1.562v-7.138c.112-.781-.669-1.561-1.561-1.561z"></path>
        <path fill="url(#hero-job-seeker-benefits_svg__E)" d="M90.53 265.282c21.129 0 38.257-17.128 38.257-38.257 0-21.128-17.128-38.256-38.256-38.256-21.129 0-38.257 17.128-38.257 38.256 0 21.129 17.128 38.257 38.257 38.257z"></path>
        <path fill="#fff" d="M106.148 240.519l-6.915 11.265-12.492-4.462c-6.469-2.342-11.488-7.361-13.718-13.83l-5.912-17.065 16.507-9.369 18.738-3.011 5.912 17.065c2.23 6.469 1.449 13.607-2.12 19.407z"></path>
    </g>
</svg>