<svg xmlns="http://www.w3.org/2000/svg" fill="none" viewBox="0 0 585 379" aria-hidden="true" data-testid="ipl-illustration-hero">
    <defs>
        <filter id="hero-job-vertical-teacher_svg__b" x="0%" y="0%">
            <feTurbulence baseFrequency="2.5" numOctaves="4" result="noise" seed="14"></feTurbulence>
            <feComponentTransfer in="noise" result="opacity">
                <feFuncA slope="0.6" type="linear"></feFuncA>
            </feComponentTransfer>
            <feBlend in="opacity" in2="SourceGraphic" mode="overlay" result="blend"></feBlend>
        </filter>
        <filter id="hero-job-vertical-teacher_svg__c" width="131.37" height="179.752" x="60.328" y="175.355" color-interpolation-filters="sRGB" filterUnits="userSpaceOnUse">
            <feFlood flood-opacity="0" result="BackgroundImageFix"></feFlood>
            <feColorMatrix in="SourceAlpha" result="hardAlpha" values="0 0 0 0 0 0 0 0 0 0 0 0 0 0 0 0 0 0 127 0"></feColorMatrix>
            <feOffset dx="-3" dy="3"></feOffset>
            <feGaussianBlur stdDeviation="1.5"></feGaussianBlur>
            <feColorMatrix values="0 0 0 0 0 0 0 0 0 0 0 0 0 0 0 0 0 0 0.3 0"></feColorMatrix>
            <feBlend in2="BackgroundImageFix" result="effect1_dropShadow_295_1930"></feBlend>
            <feBlend in="SourceGraphic" in2="effect1_dropShadow_295_1930" result="shape"></feBlend>
            <feColorMatrix in="SourceAlpha" result="hardAlpha" values="0 0 0 0 0 0 0 0 0 0 0 0 0 0 0 0 0 0 127 0"></feColorMatrix>
            <feOffset dx="-1.5" dy="1"></feOffset>
            <feGaussianBlur stdDeviation="0.75"></feGaussianBlur>
            <feComposite in2="hardAlpha" k2="-1" k3="1" operator="arithmetic"></feComposite>
            <feColorMatrix values="0 0 0 0 1 0 0 0 0 1 0 0 0 0 1 0 0 0 0.3 0"></feColorMatrix>
            <feBlend in2="shape" mode="soft-light" result="effect2_innerShadow_295_1930"></feBlend>
        </filter>
        <filter id="hero-job-vertical-teacher_svg__e" width="71.493" height="72.923" x="46.94" y="315.822" color-interpolation-filters="sRGB" filterUnits="userSpaceOnUse">
            <feFlood flood-opacity="0" result="BackgroundImageFix"></feFlood>
            <feColorMatrix in="SourceAlpha" result="hardAlpha" values="0 0 0 0 0 0 0 0 0 0 0 0 0 0 0 0 0 0 127 0"></feColorMatrix>
            <feOffset dx="-4" dy="4"></feOffset>
            <feGaussianBlur stdDeviation="3"></feGaussianBlur>
            <feColorMatrix values="0 0 0 0 0 0 0 0 0 0 0 0 0 0 0 0 0 0 0.3 0"></feColorMatrix>
            <feBlend in2="BackgroundImageFix" result="effect1_dropShadow_295_1930"></feBlend>
            <feBlend in="SourceGraphic" in2="effect1_dropShadow_295_1930" result="shape"></feBlend>
            <feColorMatrix in="SourceAlpha" result="hardAlpha" values="0 0 0 0 0 0 0 0 0 0 0 0 0 0 0 0 0 0 127 0"></feColorMatrix>
            <feOffset dx="-1.5" dy="1"></feOffset>
            <feGaussianBlur stdDeviation="0.75"></feGaussianBlur>
            <feComposite in2="hardAlpha" k2="-1" k3="1" operator="arithmetic"></feComposite>
            <feColorMatrix values="0 0 0 0 1 0 0 0 0 1 0 0 0 0 1 0 0 0 0.3 0"></feColorMatrix>
            <feBlend in2="shape" mode="soft-light" result="effect2_innerShadow_295_1930"></feBlend>
        </filter>
        <filter id="hero-job-vertical-teacher_svg__g" width="154.98" height="141.717" x="174.748" y="54.23" color-interpolation-filters="sRGB" filterUnits="userSpaceOnUse">
            <feFlood flood-opacity="0" result="BackgroundImageFix"></feFlood>
            <feColorMatrix in="SourceAlpha" result="hardAlpha" values="0 0 0 0 0 0 0 0 0 0 0 0 0 0 0 0 0 0 127 0"></feColorMatrix>
            <feOffset dx="-3" dy="3"></feOffset>
            <feGaussianBlur stdDeviation="1.5"></feGaussianBlur>
            <feColorMatrix values="0 0 0 0 0 0 0 0 0 0 0 0 0 0 0 0 0 0 0.3 0"></feColorMatrix>
            <feBlend in2="BackgroundImageFix" result="effect1_dropShadow_295_1930"></feBlend>
            <feBlend in="SourceGraphic" in2="effect1_dropShadow_295_1930" result="shape"></feBlend>
            <feColorMatrix in="SourceAlpha" result="hardAlpha" values="0 0 0 0 0 0 0 0 0 0 0 0 0 0 0 0 0 0 127 0"></feColorMatrix>
            <feOffset dx="-1.5" dy="1"></feOffset>
            <feGaussianBlur stdDeviation="0.75"></feGaussianBlur>
            <feComposite in2="hardAlpha" k2="-1" k3="1" operator="arithmetic"></feComposite>
            <feColorMatrix values="0 0 0 0 1 0 0 0 0 1 0 0 0 0 1 0 0 0 0.3 0"></feColorMatrix>
            <feBlend in2="shape" mode="soft-light" result="effect2_innerShadow_295_1930"></feBlend>
        </filter>
        <filter id="hero-job-vertical-teacher_svg__i" width="113.611" height="134.992" x="189.521" y="23.521" color-interpolation-filters="sRGB" filterUnits="userSpaceOnUse">
            <feFlood flood-opacity="0" result="BackgroundImageFix"></feFlood>
            <feColorMatrix in="SourceAlpha" result="hardAlpha" values="0 0 0 0 0 0 0 0 0 0 0 0 0 0 0 0 0 0 127 0"></feColorMatrix>
            <feOffset dx="-3" dy="3"></feOffset>
            <feGaussianBlur stdDeviation="1.5"></feGaussianBlur>
            <feColorMatrix values="0 0 0 0 0 0 0 0 0 0 0 0 0 0 0 0 0 0 0.3 0"></feColorMatrix>
            <feBlend in2="BackgroundImageFix" result="effect1_dropShadow_295_1930"></feBlend>
            <feBlend in="SourceGraphic" in2="effect1_dropShadow_295_1930" result="shape"></feBlend>
            <feColorMatrix in="SourceAlpha" result="hardAlpha" values="0 0 0 0 0 0 0 0 0 0 0 0 0 0 0 0 0 0 127 0"></feColorMatrix>
            <feOffset dx="-1.5" dy="1"></feOffset>
            <feGaussianBlur stdDeviation="0.75"></feGaussianBlur>
            <feComposite in2="hardAlpha" k2="-1" k3="1" operator="arithmetic"></feComposite>
            <feColorMatrix values="0 0 0 0 1 0 0 0 0 1 0 0 0 0 1 0 0 0 0.3 0"></feColorMatrix>
            <feBlend in2="shape" mode="soft-light" result="effect2_innerShadow_295_1930"></feBlend>
        </filter>
        <filter id="hero-job-vertical-teacher_svg__k" width="253.143" height="211.546" x="70.122" y="173.336" color-interpolation-filters="sRGB" filterUnits="userSpaceOnUse">
            <feFlood flood-opacity="0" result="BackgroundImageFix"></feFlood>
            <feColorMatrix in="SourceAlpha" result="hardAlpha" values="0 0 0 0 0 0 0 0 0 0 0 0 0 0 0 0 0 0 127 0"></feColorMatrix>
            <feOffset dx="-3" dy="3"></feOffset>
            <feGaussianBlur stdDeviation="1.5"></feGaussianBlur>
            <feColorMatrix values="0 0 0 0 0 0 0 0 0 0 0 0 0 0 0 0 0 0 0.3 0"></feColorMatrix>
            <feBlend in2="BackgroundImageFix" result="effect1_dropShadow_295_1930"></feBlend>
            <feBlend in="SourceGraphic" in2="effect1_dropShadow_295_1930" result="shape"></feBlend>
            <feColorMatrix in="SourceAlpha" result="hardAlpha" values="0 0 0 0 0 0 0 0 0 0 0 0 0 0 0 0 0 0 127 0"></feColorMatrix>
            <feOffset dx="-1.5" dy="1"></feOffset>
            <feGaussianBlur stdDeviation="0.75"></feGaussianBlur>
            <feComposite in2="hardAlpha" k2="-1" k3="1" operator="arithmetic"></feComposite>
            <feColorMatrix values="0 0 0 0 1 0 0 0 0 1 0 0 0 0 1 0 0 0 0.3 0"></feColorMatrix>
            <feBlend in2="shape" mode="soft-light" result="effect2_innerShadow_295_1930"></feBlend>
        </filter>
        <filter id="hero-job-vertical-teacher_svg__n" width="117.522" height="188.785" x="314.922" y="141.269" color-interpolation-filters="sRGB" filterUnits="userSpaceOnUse">
            <feFlood flood-opacity="0" result="BackgroundImageFix"></feFlood>
            <feColorMatrix in="SourceAlpha" result="hardAlpha" values="0 0 0 0 0 0 0 0 0 0 0 0 0 0 0 0 0 0 127 0"></feColorMatrix>
            <feOffset dx="-3" dy="3"></feOffset>
            <feGaussianBlur stdDeviation="1.5"></feGaussianBlur>
            <feColorMatrix values="0 0 0 0 0 0 0 0 0 0 0 0 0 0 0 0 0 0 0.3 0"></feColorMatrix>
            <feBlend in2="BackgroundImageFix" result="effect1_dropShadow_295_1930"></feBlend>
            <feBlend in="SourceGraphic" in2="effect1_dropShadow_295_1930" result="shape"></feBlend>
            <feColorMatrix in="SourceAlpha" result="hardAlpha" values="0 0 0 0 0 0 0 0 0 0 0 0 0 0 0 0 0 0 127 0"></feColorMatrix>
            <feOffset dx="-1.5" dy="1"></feOffset>
            <feGaussianBlur stdDeviation="0.75"></feGaussianBlur>
            <feComposite in2="hardAlpha" k2="-1" k3="1" operator="arithmetic"></feComposite>
            <feColorMatrix values="0 0 0 0 1 0 0 0 0 1 0 0 0 0 1 0 0 0 0.3 0"></feColorMatrix>
            <feBlend in2="shape" mode="soft-light" result="effect2_innerShadow_295_1930"></feBlend>
        </filter>
        <filter id="hero-job-vertical-teacher_svg__q" width="88.859" height="26.311" x="200.806" y="160.3" color-interpolation-filters="sRGB" filterUnits="userSpaceOnUse">
            <feFlood flood-opacity="0" result="BackgroundImageFix"></feFlood>
            <feColorMatrix in="SourceAlpha" result="hardAlpha" values="0 0 0 0 0 0 0 0 0 0 0 0 0 0 0 0 0 0 127 0"></feColorMatrix>
            <feOffset dx="-1" dy="1"></feOffset>
            <feGaussianBlur stdDeviation="1.5"></feGaussianBlur>
            <feColorMatrix values="0 0 0 0 0 0 0 0 0 0 0 0 0 0 0 0 0 0 0.3 0"></feColorMatrix>
            <feBlend in2="BackgroundImageFix" result="effect1_dropShadow_295_1930"></feBlend>
            <feBlend in="SourceGraphic" in2="effect1_dropShadow_295_1930" result="shape"></feBlend>
            <feColorMatrix in="SourceAlpha" result="hardAlpha" values="0 0 0 0 0 0 0 0 0 0 0 0 0 0 0 0 0 0 127 0"></feColorMatrix>
            <feOffset dx="-1.5" dy="1"></feOffset>
            <feGaussianBlur stdDeviation="0.75"></feGaussianBlur>
            <feComposite in2="hardAlpha" k2="-1" k3="1" operator="arithmetic"></feComposite>
            <feColorMatrix values="0 0 0 0 1 0 0 0 0 1 0 0 0 0 1 0 0 0 0.3 0"></feColorMatrix>
            <feBlend in2="shape" mode="soft-light" result="effect2_innerShadow_295_1930"></feBlend>
        </filter>
        <filter id="hero-job-vertical-teacher_svg__r" width="151.343" height="166.913" x="240.287" y="175.237" color-interpolation-filters="sRGB" filterUnits="userSpaceOnUse">
            <feFlood flood-opacity="0" result="BackgroundImageFix"></feFlood>
            <feColorMatrix in="SourceAlpha" result="hardAlpha" values="0 0 0 0 0 0 0 0 0 0 0 0 0 0 0 0 0 0 127 0"></feColorMatrix>
            <feOffset dx="-3" dy="3"></feOffset>
            <feGaussianBlur stdDeviation="1.5"></feGaussianBlur>
            <feColorMatrix values="0 0 0 0 0 0 0 0 0 0 0 0 0 0 0 0 0 0 0.3 0"></feColorMatrix>
            <feBlend in2="BackgroundImageFix" result="effect1_dropShadow_295_1930"></feBlend>
            <feBlend in="SourceGraphic" in2="effect1_dropShadow_295_1930" result="shape"></feBlend>
            <feColorMatrix in="SourceAlpha" result="hardAlpha" values="0 0 0 0 0 0 0 0 0 0 0 0 0 0 0 0 0 0 127 0"></feColorMatrix>
            <feOffset dx="-1.5" dy="1"></feOffset>
            <feGaussianBlur stdDeviation="0.75"></feGaussianBlur>
            <feComposite in2="hardAlpha" k2="-1" k3="1" operator="arithmetic"></feComposite>
            <feColorMatrix values="0 0 0 0 1 0 0 0 0 1 0 0 0 0 1 0 0 0 0.3 0"></feColorMatrix>
            <feBlend in2="shape" mode="soft-light" result="effect2_innerShadow_295_1930"></feBlend>
        </filter>
        <filter id="hero-job-vertical-teacher_svg__s" width="36.039" height="63.117" x="377.942" y="130.073" color-interpolation-filters="sRGB" filterUnits="userSpaceOnUse">
            <feFlood flood-opacity="0" result="BackgroundImageFix"></feFlood>
            <feColorMatrix in="SourceAlpha" result="hardAlpha" values="0 0 0 0 0 0 0 0 0 0 0 0 0 0 0 0 0 0 127 0"></feColorMatrix>
            <feOffset dx="-1" dy="1"></feOffset>
            <feGaussianBlur stdDeviation="0.5"></feGaussianBlur>
            <feColorMatrix values="0 0 0 0 0 0 0 0 0 0 0 0 0 0 0 0 0 0 0.3 0"></feColorMatrix>
            <feBlend in2="BackgroundImageFix" result="effect1_dropShadow_295_1930"></feBlend>
            <feBlend in="SourceGraphic" in2="effect1_dropShadow_295_1930" result="shape"></feBlend>
            <feColorMatrix in="SourceAlpha" result="hardAlpha" values="0 0 0 0 0 0 0 0 0 0 0 0 0 0 0 0 0 0 127 0"></feColorMatrix>
            <feOffset dx="-1.5" dy="1"></feOffset>
            <feGaussianBlur stdDeviation="0.75"></feGaussianBlur>
            <feComposite in2="hardAlpha" k2="-1" k3="1" operator="arithmetic"></feComposite>
            <feColorMatrix values="0 0 0 0 1 0 0 0 0 1 0 0 0 0 1 0 0 0 0.3 0"></feColorMatrix>
            <feBlend in2="shape" mode="soft-light" result="effect2_innerShadow_295_1930"></feBlend>
        </filter>
        <filter id="hero-job-vertical-teacher_svg__u" width="12.727" height="27.036" x="279.421" y="119.291" color-interpolation-filters="sRGB" filterUnits="userSpaceOnUse">
            <feFlood flood-opacity="0" result="BackgroundImageFix"></feFlood>
            <feColorMatrix in="SourceAlpha" result="hardAlpha" values="0 0 0 0 0 0 0 0 0 0 0 0 0 0 0 0 0 0 127 0"></feColorMatrix>
            <feOffset dx="-1" dy="1"></feOffset>
            <feGaussianBlur stdDeviation="0.5"></feGaussianBlur>
            <feColorMatrix values="0 0 0 0 0 0 0 0 0 0 0 0 0 0 0 0 0 0 0.3 0"></feColorMatrix>
            <feBlend in2="BackgroundImageFix" result="effect1_dropShadow_295_1930"></feBlend>
            <feBlend in="SourceGraphic" in2="effect1_dropShadow_295_1930" result="shape"></feBlend>
            <feColorMatrix in="SourceAlpha" result="hardAlpha" values="0 0 0 0 0 0 0 0 0 0 0 0 0 0 0 0 0 0 127 0"></feColorMatrix>
            <feOffset dx="-1.5" dy="1"></feOffset>
            <feGaussianBlur stdDeviation="0.75"></feGaussianBlur>
            <feComposite in2="hardAlpha" k2="-1" k3="1" operator="arithmetic"></feComposite>
            <feColorMatrix values="0 0 0 0 1 0 0 0 0 1 0 0 0 0 1 0 0 0 0.3 0"></feColorMatrix>
            <feBlend in2="shape" mode="soft-light" result="effect2_innerShadow_295_1930"></feBlend>
        </filter>
        <filter id="hero-job-vertical-teacher_svg__v" width="40.122" height="20.2" x="369.67" y="205.951" color-interpolation-filters="sRGB" filterUnits="userSpaceOnUse">
            <feFlood flood-opacity="0" result="BackgroundImageFix"></feFlood>
            <feColorMatrix in="SourceAlpha" result="hardAlpha" values="0 0 0 0 0 0 0 0 0 0 0 0 0 0 0 0 0 0 127 0"></feColorMatrix>
            <feOffset dx="-1" dy="1"></feOffset>
            <feGaussianBlur stdDeviation="0.5"></feGaussianBlur>
            <feColorMatrix values="0 0 0 0 0 0 0 0 0 0 0 0 0 0 0 0 0 0 0.3 0"></feColorMatrix>
            <feBlend in2="BackgroundImageFix" result="effect1_dropShadow_295_1930"></feBlend>
            <feBlend in="SourceGraphic" in2="effect1_dropShadow_295_1930" result="shape"></feBlend>
            <feColorMatrix in="SourceAlpha" result="hardAlpha" values="0 0 0 0 0 0 0 0 0 0 0 0 0 0 0 0 0 0 127 0"></feColorMatrix>
            <feOffset dx="-1.5" dy="1"></feOffset>
            <feGaussianBlur stdDeviation="0.75"></feGaussianBlur>
            <feComposite in2="hardAlpha" k2="-1" k3="1" operator="arithmetic"></feComposite>
            <feColorMatrix values="0 0 0 0 1 0 0 0 0 1 0 0 0 0 1 0 0 0 0.3 0"></feColorMatrix>
            <feBlend in2="shape" mode="soft-light" result="effect2_innerShadow_295_1930"></feBlend>
        </filter>
        <linearGradient id="hero-job-vertical-teacher_svg__d" x1="-19.004" x2="273.416" y1="467.015" y2="142.278" gradientUnits="userSpaceOnUse">
            <stop offset="0.444" stop-color="#4F1C36"></stop>
            <stop offset="0.88" stop-color="#74234E"></stop>
        </linearGradient>
        <linearGradient id="hero-job-vertical-teacher_svg__f" x1="86.859" x2="133.438" y1="410.071" y2="314.616" gradientUnits="userSpaceOnUse">
            <stop offset="0.052" stop-color="#DF7838"></stop>
            <stop offset="0.599" stop-color="#F0996F"></stop>
        </linearGradient>
        <linearGradient id="hero-job-vertical-teacher_svg__h" x1="255.669" x2="370.7" y1="259.731" y2="73.192" gradientUnits="userSpaceOnUse">
            <stop offset="0.052" stop-color="#DF7838"></stop>
            <stop offset="0.455" stop-color="#F0996F"></stop>
            <stop offset="0.67" stop-color="#F39E78"></stop>
            <stop offset="0.8" stop-color="#FFB286"></stop>
        </linearGradient>
        <linearGradient id="hero-job-vertical-teacher_svg__j" x1="280.368" x2="208.953" y1="27.679" y2="147.247" gradientUnits="userSpaceOnUse">
            <stop offset="0.682" stop-color="#595959"></stop>
            <stop offset="0.948" stop-color="#2D2D2D"></stop>
        </linearGradient>
        <linearGradient id="hero-job-vertical-teacher_svg__l" x1="-92.094" x2="198.866" y1="518.364" y2="-20.067" gradientUnits="userSpaceOnUse">
            <stop offset="0.089" stop-color="#4F1C36"></stop>
            <stop offset="0.505" stop-color="#74234E"></stop>
        </linearGradient>
        <linearGradient id="hero-job-vertical-teacher_svg__m" x1="283.653" x2="283.653" y1="243.801" y2="378.882" gradientUnits="userSpaceOnUse">
            <stop offset="0.37" stop-color="#4F1C36"></stop>
            <stop offset="0.88" stop-color="#74234E"></stop>
        </linearGradient>
        <linearGradient id="hero-job-vertical-teacher_svg__o" x1="387.287" x2="437.094" y1="324.131" y2="82.872" gradientUnits="userSpaceOnUse">
            <stop stop-color="#DF7838"></stop>
            <stop offset="0.43" stop-color="#F39E78"></stop>
            <stop offset="0.733" stop-color="#F8A67D"></stop>
            <stop offset="0.856" stop-color="#FFB286"></stop>
        </linearGradient>
        <linearGradient id="hero-job-vertical-teacher_svg__p" x1="387.287" x2="437.094" y1="324.131" y2="82.872" gradientUnits="userSpaceOnUse">
            <stop stop-color="#DF7838"></stop>
            <stop offset="0.43" stop-color="#F39E78"></stop>
            <stop offset="0.733" stop-color="#F8A67D"></stop>
            <stop offset="0.856" stop-color="#FFB286"></stop>
        </linearGradient>
        <linearGradient id="hero-job-vertical-teacher_svg__t" x1="425.041" x2="392.641" y1="207.62" y2="189.575" gradientUnits="userSpaceOnUse">
            <stop stop-color="#fff"></stop>
            <stop offset="1" stop-color="#B4B2B1"></stop>
        </linearGradient>
        <clipPath id="hero-job-vertical-teacher_svg__a">
            <path xmlns="http://www.w3.org/2000/svg" fill="#fff" d="M494.064.972l90.107 377.91H.128l78.647-235.248 120.362-41.347-3.353-6.118c-2.289-11.44 10.823-26.751 20.644-33.073l-5.893-2.762c2.737-7.487 16.31-24.246 23.895-26.656l30.424-9.693a29.902 29.902 0 0127.485 9.463l7.721 7.716c4.578 5.104 3.969 13.01-1.355 17.329l-1.127.308a48.321 48.321 0 017.566 7.07L494.064.97z"></path>
        </clipPath>
    </defs>
    <g clip-path="url(#hero-job-vertical-teacher_svg__a)" filter="url(#hero-job-vertical-teacher_svg__b)">
        <path fill="#7BC0AE" d="M.128 378.882H584.17L494.064.972 78.775 143.634.128 378.882z"></path>
        <g filter="url(#hero-job-vertical-teacher_svg__c)">
            <path fill="url(#hero-job-vertical-teacher_svg__d)" d="M191.49 190.286c1.748-9.72-7.802-17.613-17.013-14.066-9.022 3.479-18.585 6.999-23.421 8.258-10.674 2.789-26.699 25.668-31.278 37.108-4.578 11.439-28.906 52.161-28.906 52.161s-11.514 11.873-19.9 23.312c-1.422 1.95-2.478 4.332-3.237 6.945-6.745 23.123 11.677 46.476 35.734 45.041.61-.041 1.219-.081 1.829-.149 22.12-2.288 67.12-52.608 67.12-52.608l19.072-106.002z"></path>
        </g>
        <g filter="url(#hero-job-vertical-teacher_svg__e)">
            <path fill="url(#hero-job-vertical-teacher_svg__f)" d="M98.838 320.966l-.434-.244c-10.349-5.903-23.515-2.518-29.733 7.649a25.543 25.543 0 00-3.264 8.326l-8.467 42.048h59.494l-17.596-57.779z"></path>
        </g>
        <g filter="url(#hero-job-vertical-teacher_svg__g)">
            <path fill="url(#hero-job-vertical-teacher_svg__h)" d="M328.154 116.26l-7.085-7.31c-1.666-1.611-4.456-5.781-5.499-7.839 0 0 .135-3.384.46-5.753.475-3.493.122-7.04-1.029-10.37l-3.183-9.166-.691-1.272a48.399 48.399 0 00-20.942-20.32h-39.08L212.54 67.957l-10.159 24.91 27.701 53.339-20.63 22.798c-9.374 2.03-18.057 1.191-28.704 4.332 11.663 24.057 59.277 16.354 76.046 7.716 1.843-.947 3.604-1.57 5.27-1.936l21.673 10.831 10.552-22.609a9.693 9.693 0 017.857-5.536l6.434-.61a15.934 15.934 0 002.384-.23h.041c.406-.068.826-.135 1.273-.23l3.82-.948c.826-.162 2.113-1.773 3.183-3.344a9.95 9.95 0 001.68-6.376l-.379-4.752 2.492-3.032c.65-.88.772-2.45.42-3.75-.257-.975-1.232-1.571-2.235-1.489l-1.896.162a3.96 3.96 0 01-1.897-.311l-4.808-2.085s5.77.176 7.152-.487c1.124-.542 4.754-2.437 4.754-4.089l-.84-4.481s3.509-1.354 5.785-3.56c.731-.731-.529-5.131-1.355-5.93z"></path>
        </g>
        <path fill="#595959" d="M314.988 93.15h-3.616a9.17 9.17 0 00-9.049 7.758l-.339 2.126 2.574-2.776c1.273-1.367 6.665-3.344 6.665-3.344 2.668.204 3.765-3.763 3.765-3.763z"></path>
        <path fill="#553D1C" d="M304.53 103.505l4.552-.961c.186-.041.371-.091.552-.15a9.775 9.775 0 00-.303 1.286c-.292 1.74-.105 3.222.419 3.31.524.088 1.186-1.251 1.478-2.991.163-.971.177-1.862.066-2.475.063-.046.124-.095.185-.144l2.1-1.72-1.924.61a5.309 5.309 0 01-1.95.244 3.061 3.061 0 00-2.019.622l-3.156 2.369zm16.54 20.281l5.336-1.625c-2.067 2.691-4.975 1.742-5.306 1.634a.237.237 0 00-.03-.009zm0 0c-.001 0 0-.001 0 0z"></path>
        <path fill="#DF7838" d="M286.894 128.835l-17.501 10.113 6.474-37.839 8.9 12.834 2.127 14.892z"></path>
        <g filter="url(#hero-job-vertical-teacher_svg__i)">
            <path fill="url(#hero-job-vertical-teacher_svg__j)" d="M282.735 118.208s-15.348 37.094-40.082 31.002c-6.638-1.638-9.93.961-16.499 2.816l-1.707.487-15.957-30.352c-2.858-4.345-5.08-8.826-6.096-13.93l-6.61-12.062c-2.289-11.44 10.823-26.751 20.644-33.073l-5.893-2.762c2.737-7.487 16.31-24.246 23.895-26.656l30.424-9.693a29.902 29.902 0 0127.485 9.463l7.721 7.716c4.578 5.104 3.969 13.01-1.355 17.329l-12.164 3.33c-1.747.474-2.641 2.423-1.869 4.048a45.49 45.49 0 013.495 28.43l-2.506 12.468-2.926 11.439z"></path>
        </g>
        <path fill="#F39E78" d="M288.058 124.396c-6.881 2.802-15.347-17.098-15.104-25.032.325-10.573 9.726-9.977 14.251 1.124 3.792 9.341 4.131 22.568.853 23.908z"></path>
        <path fill="#fff" d="M323.264 130.787l-2.195 5.049h-4.388l-3.996-1.056 5.282-.947 5.297-3.046z"></path>
        <path fill="#74234E" d="M316.993 133.317a7.96 7.96 0 003.684-2.613c.258-.325.596-.582.976-.744l2.668-1.124.258 1.367c0 1.652-3.631 3.547-4.755 4.089-1.343.645-6.836.496-7.139.487l4.808 2.085a3.962 3.962 0 001.897.312l1.896-.163c.989-.095 1.964.514 2.222 1.476.352 1.299.23 2.87-.42 3.75l-.705.866a15.21 15.21 0 01-7.26-5.158l-2.438-3.168h-.013l4.321-1.462z"></path>
        <g filter="url(#hero-job-vertical-teacher_svg__k)">
            <path fill="url(#hero-job-vertical-teacher_svg__l)" d="M90.804 378.733l4.267.149h198.04c12.801-22.121 9.022-82.419 11.419-93.155 2.723-12.197 18.734-27.441 18.734-27.441l-14.209-32.017-21.579-44.296-3.712 7.96-21.673-10.83c-1.68.379-3.427.988-5.269 1.936-16.783 8.637-64.384 16.34-76.047-7.703-6.244 1.841-13.166 5.05-21.294 11.006-34.325 25.154-38.903 99.869-46.53 115.113-7.626 15.243-34.325 46.502-36.614 54.882-2.29 8.38 14.467 24.396 14.467 24.396z"></path>
        </g>
        <path fill="url(#hero-job-vertical-teacher_svg__m)" d="M262.904 378.882h30.208c12.801-22.121 9.021-82.419 11.419-93.154 1.192-5.334 4.917-11.237 8.737-16.205l-23.042-25.722-12.082 11.832s12.936 50.347 9.915 68.434c-3.021 18.087-54.143 45.826-25.155 54.815z"></path>
        <path fill="#DF7838" d="M409.104 152.042l-11.934-4.454c-1.449-.541-2.872.88-2.343 2.356a13.035 13.035 0 005.54 6.809l7.934 4.78-11.876 4.249c-1.111.393-1.504 1.801-.745 2.735l.054.067a7.623 7.623 0 006.773 2.803l-2.193 1.338a1.586 1.586 0 00-.176 2.572l.054.054a6.915 6.915 0 007.125 1.016l8.344-4.13-.989-8.271-1.255.766.414-5.177-2.204.788-2.523-8.301z"></path>
        <g filter="url(#hero-job-vertical-teacher_svg__n)">
            <path fill="url(#hero-job-vertical-teacher_svg__o)" d="M407.615 210.214l-3.075 64.765a56.373 56.373 0 01-6.298 19.346l-6.679 15.176c-7.612 14.052-14.128 8.935-29.557 12.455l-9.211 2.098-7.721-5.97s-12.774-9.45-14.196-12.645c-1.422-3.195-9.956-43.145-9.956-43.145l26.902-3.79 20.061-34.008c3.956-7.933 7.911-9.828 11.067-23.163l.623-8.393 28.04 17.274z"></path>
            <path fill="url(#hero-job-vertical-teacher_svg__p)" d="M417.964 205.123l9.157-9.003c3.454-3.384 5.513-8.042 5.31-12.875-.055-1.204-.244-2.26-.691-2.91 0 0-.854-6.092-1.314-8.109l-4.01-17.681a4.878 4.878 0 00-4.009-2.978 3.607 3.607 0 01-2.859-1.977 4.905 4.905 0 00-2.072-2.125l-17.583-4.061-4.497-2.045c-1.178-.501-3.278 1.178-3.061 2.451 0 0 .664 4.223 4.795 7.418l12.354 6.769s.19 2.478 1.111 7.595c1.395 7.73-6.286 14.025-13.357 10.776-.135-.054-.257-.122-.392-.189l-4.105-11.778 1.45-7.703c.541-2.87-.786-5.781-3.292-7.23a2.392 2.392 0 00-3.359 1.002l-3.021 5.984a3.832 3.832 0 01-.474.731l-3.183 3.967a10.772 10.772 0 00-2.33 7.445l1.354 20.037-1.693 22.946 6.055 16.029 16.783.569 16.933-23.055z"></path>
        </g>
        <g filter="url(#hero-job-vertical-teacher_svg__q)" fill="#735324">
            <path d="M287.273 182.611c-.407-.122-41.261-12.658-55.823-16.476-14.264-3.736-25.276 3.33-25.385 3.412l-.745-1.138c.461-.311 11.609-7.486 26.469-3.587 14.589 3.818 55.456 16.354 55.876 16.489l-.392 1.3z"></path>
            <path d="M226.424 163.117l1.314-.609a2.265 2.265 0 011.233-.19l5.269.718c.921.121 1.707.69 2.127 1.529a2.802 2.802 0 01-1.328 3.791l-.474.217a2.788 2.788 0 01-1.869.176l-5.879-1.49a2.154 2.154 0 01-1.246-.839 2.214 2.214 0 01.853-3.303zm21.213 5.008l1.517-.704a2.578 2.578 0 011.422-.217l6.042.826a3.219 3.219 0 012.438 1.747 3.206 3.206 0 01-1.517 4.345l-.542.258a3.284 3.284 0 01-2.154.203l-6.759-1.706a2.576 2.576 0 01-1.436-.975 2.526 2.526 0 01.989-3.777zm-33.201-4.631a2.336 2.336 0 00-.812-.028l-6.042.826a3.219 3.219 0 00-2.438 1.747c-.623 1.245-.352 2.68.542 3.641a64.695 64.695 0 003.779-.677l4.971-5.509z"></path>
        </g>
        <g filter="url(#hero-job-vertical-teacher_svg__r)">
            <path fill="#74234E" d="M273.725 175.261c15.382.676 29.737 7.536 39.474 18.847l33.913 42.322a42.544 42.544 0 007.513 7.293l20.001 15.099c5.246 3.964 9.223 9.228 11.504 15.208l3.863 10.174c2.523 6.63 2.11 13.95-1.112 20.282l-1.867 3.653s-6.914 25.044-19.901 27.547c-13.956 2.692-38.789-6.603-55.867-21.513-17.079-14.91-39.26-28.237-44.093-47.071-2.081-8.104-8.568-21.566-15.296-34.258-8.126-15.343-7.199-33.243 1.725-47.463 4.191-6.657 11.989-10.486 20.143-10.12z"></path>
        </g>
        <g filter="url(#hero-job-vertical-teacher_svg__s)">
            <path fill="#fff" d="M397.429 151.403l-.312-.163c-4.118-3.195-4.795-7.419-4.795-7.419-.095-.595.311-1.272.88-1.787l-3.616-8.041a4.399 4.399 0 00-.908-2.017l-.041-.095-.027.014a5.166 5.166 0 00-3.088-1.747c-2.655-.447-5.121 1.151-5.527 3.561-.135.798 0 1.57.298 2.288l-.013.013 6.786 15.379.433-.866a2.422 2.422 0 013.373-1.029c2.506 1.448 3.834 4.345 3.292 7.229l-1.422 7.541 11.879 26.926 9.361-3.425-16.553-36.362z"></path>
        </g>
        <path fill="url(#hero-job-vertical-teacher_svg__t)" d="M410.281 191.904c2.572-.981 4.249-2.847 3.744-4.167-.504-1.32-2.998-1.595-5.57-.614s-4.249 2.847-3.744 4.167c.504 1.321 2.998 1.595 5.57.614z"></path>
        <path fill="#74234E" d="M384.532 156.481s1.951-.921 4.755-.257l2.276-4.982s-2.141-1.936-4.024-.731l-3.007 5.97z"></path>
        <g filter="url(#hero-job-vertical-teacher_svg__u)">
            <path fill="#735324" d="M287.576 126.038a5.585 5.585 0 00.482-2.307c0-2.452-1.485-4.44-3.318-4.44s-3.319 1.988-3.319 4.44c0 1.922.912 3.558 2.188 4.177l-1.986 14.115s.23.311.691.704c2.75 2.436 7.003 2.017 9.387-.759l.447-.514-4.572-15.416z"></path>
        </g>
        <g filter="url(#hero-job-vertical-teacher_svg__v)">
            <path fill="#735324" d="M397.971 219.863c.61 1.543 2.139 2.983 4.201 3.753 3.231 1.205 6.55.308 7.413-2.003.864-2.312-1.055-5.162-4.286-6.368-2.029-.757-4.092-.685-5.56.046-5.516-1.61-14.146-4.573-22.798-9.316h-1.169c-.962-.155-5.179.373-3.843 3.544-.367.842.296 2.418 1.17 2.838 3.847 1.885 10.882 3.729 19.887 6.004 2.241.567 3.828 1.063 4.985 1.502z"></path>
        </g>
        <path fill="#409EC8" d="M407.795 220.945c.599-1.604-.733-3.583-2.976-4.419-2.243-.837-4.546-.215-5.145 1.389-.599 1.604.733 3.583 2.976 4.419 2.242.837 4.546.215 5.145-1.389z"></path>
        <path fill="#fff" d="M349.544 129.456c.379.163.758.244 1.165.244 2.208 0 4.835-2.599 9.211-8.895 8.899-12.806 14.006-21.85 16.864-27.603l1.734 23.163 3.292-6.904c13.911-29.201 26.048-47.627 29.543-48.344.231.366.867 1.868.637 6.85-.664 14.08 1.476 22.108 6.543 24.544 5.217 2.527 10.901-2.31 11.249-2.607l.007-.005c12.801-11.562 23.191-18.98 26.658-20.104l-.056.197c-.039.14-.084.3-.147.48-2.519 7.54-2.695 11.304-.609 12.955 1.246.989 2.926.758 4.023.082l-2.127-3.466c.258-.054.732.176.84.433-.027-.068-.637-1.61 1.734-8.732.921-2.748.609-4.657-.908-5.645-1.801-1.164-4.876-1.503-18.693 9.422-6.895 5.456-13.37 11.29-13.41 11.332-1.003.893-4.416 3.14-6.787 2.003-1.531-.744-5.025-4.25-4.253-20.7.216-4.656 0-10.112-3.631-11.02-3.21-.784-7.992 1.68-21.05 25.019-3.86 6.89-7.464 13.903-9.929 18.831l-2.032-27.198-3.156 10.452c-.027.108-3.359 10.79-19.669 34.25-2.641 3.818-4.239 5.605-5.133 6.445-.067-3.092 1.388-10.364 2.416-15.5l.035-.177c1.152-5.713 2.33-11.643 2.561-15.637.203-3.6-.732-5.861-2.804-6.728-4.85-2.044-13.33 6.444-16.743 10.18l3.007 2.735c5.269-5.767 10.864-9.68 12.137-9.192.014 0 .474.5.352 2.762-.216 3.71-1.368 9.476-2.492 15.067-2.899 14.459-3.617 19.63-.379 21.011zm-10.512 39.419l3.373 2.261 14.535-21.701c.745 3.195 2.492 6.796 6.515 8.596 1.436.65 2.967.596 4.403-.135 5.919-3.019 9.373-18.29 10.01-21.322l-3.982-.826c-1.409 6.755-4.782 16.963-7.871 18.547-.379.189-.623.162-.893.041-5.338-2.383-4.593-10.601-4.579-10.682l.853-8.15-22.364 33.371z"></path>
    </g>
</svg>